<svg width="512" height="512" viewBox="0 0 512 512" fill="none" xmlns="http://www.w3.org/2000/svg">
<g clip-path="url(#clip0_2459_88)">
<path d="M506.757 242.828L388.357 117.388C381.08 109.67 368.933 109.318 361.215 116.601C353.509 123.878 353.151 136.031 360.434 143.743L466.399 255.999L360.434 368.268C353.151 375.98 353.509 388.127 361.215 395.41C364.927 398.911 369.669 400.645 374.393 400.645C379.494 400.645 384.588 398.623 388.358 394.635L506.758 269.189C513.739 261.785 513.739 250.226 506.757 242.828Z" fill="white"/>
<path d="M151.565 368.262L45.6075 255.999L151.565 143.737C158.842 136.025 158.491 123.871 150.779 116.595C143.073 109.318 130.912 109.67 123.636 117.382L5.2365 242.822C-1.7455 250.22 -1.7455 261.785 5.2365 269.184L123.642 394.63C127.418 398.63 132.506 400.646 137.607 400.646C142.33 400.646 147.074 398.905 150.779 395.404C158.498 388.127 158.842 375.974 151.565 368.262Z" fill="white"/>
<path d="M287.057 52.6979C276.58 51.1109 266.775 58.3039 265.175 68.7809L208.855 437.421C207.255 447.904 214.455 457.703 224.938 459.303C225.924 459.45 226.896 459.521 227.863 459.521C237.188 459.521 245.367 452.718 246.82 443.22L303.14 74.5799C304.74 64.0959 297.54 54.2979 287.057 52.6979Z" fill="white"/>
</g>
<defs>
<clipPath id="clip0_2459_88">
<rect width="511.997" height="511.997" fill="white"/>
</clipPath>
</defs>
</svg>
